<svg width="94" height="87" viewBox="0 0 94 87" fill="none" xmlns="http://www.w3.org/2000/svg">
<ellipse cx="46.7391" cy="43.5" rx="46.7391" ry="43.5" fill="#FCFCF7"/>
<path opacity="0.66" d="M76.0186 21L75.2082 21.2896C71.1705 22.7329 69.1516 23.4545 67.9969 25.1725C66.8421 26.8905 66.8421 29.1724 66.8421 33.7364V42.32C66.8421 51.5972 66.8421 56.2357 64.1544 59.1179C61.4666 62 57.1408 62 48.4891 62H24.0186" stroke="#FFD700" stroke-width="10" stroke-linecap="round"/>
<path opacity="0.7" d="M61 70C58.7909 70 57 72.0148 57 74.5C57 76.9852 58.7909 79 61 79C63.2091 79 65 76.9852 65 74.5C65 72.0148 63.2091 70 61 70Z" stroke="#FFD700" stroke-width="5"/>
<path opacity="0.7" d="M30 70C27.7909 70 26 72.0145 26 74.5C26 76.9852 27.7909 79 30 79C32.2091 79 34 76.9852 34 74.5C34 72.0145 32.2091 70 30 70Z" stroke="#FFD700" stroke-width="5"/>
<path d="M63.1924 29H32.2269C26.6695 29 23.8911 29 22.6885 30.9265C21.4862 32.8529 22.5809 35.5513 24.77 40.948L25.9291 43.8051C26.9511 46.3246 27.4622 47.5843 28.4782 48.2923C29.4942 49 30.7915 49 33.386 49H63.1924" stroke="#FFD700" stroke-width="10"/>
</svg>
