<svg width="281" height="99" viewBox="0 0 281 99" fill="none" xmlns="http://www.w3.org/2000/svg">
<path d="M225.333 36.6299L224.612 36.8747C221.019 38.0944 219.222 38.7042 218.195 40.1561C217.167 41.608 217.167 43.5366 217.167 47.3937V54.6479C217.167 62.4882 217.167 66.4084 214.775 68.8441C212.384 71.2799 208.534 71.2799 200.835 71.2799H179.059" stroke="#FFD700" stroke-width="5" stroke-linecap="round"/>
<path opacity="0.5" d="M210.244 78.21C208.021 78.21 206.22 80.2046 206.22 82.665C206.22 85.1253 208.021 87.12 210.244 87.12C212.466 87.12 214.268 85.1253 214.268 82.665C214.268 80.2046 212.466 78.21 210.244 78.21Z" stroke="#FFD700" stroke-width="5"/>
<path opacity="0.5" d="M186.101 78.21C183.879 78.21 182.077 80.2043 182.077 82.665C182.077 85.1253 183.879 87.12 186.101 87.12C188.323 87.12 190.125 85.1253 190.125 82.665C190.125 80.2043 188.323 78.21 186.101 78.21Z" stroke="#FFD700" stroke-width="5"/>
<path d="M217.285 44.5498H186.135C180.545 44.5498 177.75 44.5498 176.54 46.457C175.331 48.3642 176.432 51.0355 178.634 56.3783L179.8 59.2069C180.828 61.7011 181.342 62.9482 182.364 63.6492C183.386 64.3498 184.691 64.3498 187.301 64.3498H217.285" stroke="#FFD700" stroke-width="5"/>
<g filter="url(#filter0_d_107_26)">
<mask id="path-5-outside-1_107_26" maskUnits="userSpaceOnUse" x="3" y="36.7202" width="267" height="41" fill="black">
<rect fill="white" x="3" y="36.7202" width="267" height="41"/>
<path d="M11.65 56.4702H28.45V62.9702H11.65V56.4702ZM12.25 75.7202H4.15V40.7202H30.6V47.2202H12.25V75.7202ZM47.6988 76.1202C44.8322 76.1202 42.2822 75.5202 40.0488 74.3202C37.8488 73.1202 36.0988 71.4869 34.7988 69.4202C33.5322 67.3202 32.8988 64.9369 32.8988 62.2702C32.8988 59.5702 33.5322 57.1869 34.7988 55.1202C36.0988 53.0202 37.8488 51.3869 40.0488 50.2202C42.2822 49.0202 44.8322 48.4202 47.6988 48.4202C50.5322 48.4202 53.0655 49.0202 55.2988 50.2202C57.5322 51.3869 59.2822 53.0035 60.5488 55.0702C61.8155 57.1369 62.4488 59.5369 62.4488 62.2702C62.4488 64.9369 61.8155 67.3202 60.5488 69.4202C59.2822 71.4869 57.5322 73.1202 55.2988 74.3202C53.0655 75.5202 50.5322 76.1202 47.6988 76.1202ZM47.6988 69.7202C48.9988 69.7202 50.1655 69.4202 51.1988 68.8202C52.2322 68.2202 53.0488 67.3702 53.6488 66.2702C54.2488 65.1369 54.5488 63.8035 54.5488 62.2702C54.5488 60.7035 54.2488 59.3702 53.6488 58.2702C53.0488 57.1702 52.2322 56.3202 51.1988 55.7202C50.1655 55.1202 48.9988 54.8202 47.6988 54.8202C46.3988 54.8202 45.2322 55.1202 44.1988 55.7202C43.1655 56.3202 42.3322 57.1702 41.6988 58.2702C41.0988 59.3702 40.7988 60.7035 40.7988 62.2702C40.7988 63.8035 41.0988 65.1369 41.6988 66.2702C42.3322 67.3702 43.1655 68.2202 44.1988 68.8202C45.2322 69.4202 46.3988 69.7202 47.6988 69.7202ZM80.4625 76.1202C77.5958 76.1202 75.0458 75.5202 72.8125 74.3202C70.6125 73.1202 68.8625 71.4869 67.5625 69.4202C66.2958 67.3202 65.6625 64.9369 65.6625 62.2702C65.6625 59.5702 66.2958 57.1869 67.5625 55.1202C68.8625 53.0202 70.6125 51.3869 72.8125 50.2202C75.0458 49.0202 77.5958 48.4202 80.4625 48.4202C83.2958 48.4202 85.8292 49.0202 88.0625 50.2202C90.2958 51.3869 92.0458 53.0035 93.3125 55.0702C94.5792 57.1369 95.2125 59.5369 95.2125 62.2702C95.2125 64.9369 94.5792 67.3202 93.3125 69.4202C92.0458 71.4869 90.2958 73.1202 88.0625 74.3202C85.8292 75.5202 83.2958 76.1202 80.4625 76.1202ZM80.4625 69.7202C81.7625 69.7202 82.9292 69.4202 83.9625 68.8202C84.9958 68.2202 85.8125 67.3702 86.4125 66.2702C87.0125 65.1369 87.3125 63.8035 87.3125 62.2702C87.3125 60.7035 87.0125 59.3702 86.4125 58.2702C85.8125 57.1702 84.9958 56.3202 83.9625 55.7202C82.9292 55.1202 81.7625 54.8202 80.4625 54.8202C79.1625 54.8202 77.9958 55.1202 76.9625 55.7202C75.9292 56.3202 75.0958 57.1702 74.4625 58.2702C73.8625 59.3702 73.5625 60.7035 73.5625 62.2702C73.5625 63.8035 73.8625 65.1369 74.4625 66.2702C75.0958 67.3702 75.9292 68.2202 76.9625 68.8202C77.9958 69.4202 79.1625 69.7202 80.4625 69.7202ZM111.976 76.1202C109.443 76.1202 107.16 75.5535 105.126 74.4202C103.093 73.2535 101.476 71.6369 100.276 69.5702C99.1095 67.5035 98.5262 65.0702 98.5262 62.2702C98.5262 59.4369 99.1095 56.9869 100.276 54.9202C101.476 52.8535 103.093 51.2535 105.126 50.1202C107.16 48.9869 109.443 48.4202 111.976 48.4202C114.243 48.4202 116.226 48.9202 117.926 49.9202C119.626 50.9202 120.943 52.4369 121.876 54.4702C122.81 56.5035 123.276 59.1035 123.276 62.2702C123.276 65.4035 122.826 68.0035 121.926 70.0702C121.026 72.1035 119.726 73.6202 118.026 74.6202C116.36 75.6202 114.343 76.1202 111.976 76.1202ZM113.326 69.7202C114.593 69.7202 115.743 69.4202 116.776 68.8202C117.81 68.2202 118.626 67.3702 119.226 66.2702C119.86 65.1369 120.176 63.8035 120.176 62.2702C120.176 60.7035 119.86 59.3702 119.226 58.2702C118.626 57.1702 117.81 56.3202 116.776 55.7202C115.743 55.1202 114.593 54.8202 113.326 54.8202C112.026 54.8202 110.86 55.1202 109.826 55.7202C108.793 56.3202 107.96 57.1702 107.326 58.2702C106.726 59.3702 106.426 60.7035 106.426 62.2702C106.426 63.8035 106.726 65.1369 107.326 66.2702C107.96 67.3702 108.793 68.2202 109.826 68.8202C110.86 69.4202 112.026 69.7202 113.326 69.7202ZM120.376 75.7202V70.2202L120.526 62.2202L120.026 54.2702V38.6202H127.826V75.7202H120.376ZM142.845 67.7202L142.395 58.3702L159.145 40.7202H168.145L153.045 56.9702L148.545 61.7702L142.845 67.7202ZM135.595 75.7202V40.7202H143.645V75.7202H135.595ZM159.545 75.7202L147.095 60.4702L152.395 54.7202L168.995 75.7202H159.545ZM228.698 75.7202V48.8202H236.148V56.4202L235.098 54.2202C235.898 52.3202 237.181 50.8869 238.948 49.9202C240.714 48.9202 242.864 48.4202 245.398 48.4202V55.6202C245.064 55.5869 244.764 55.5702 244.498 55.5702C244.231 55.5369 243.948 55.5202 243.648 55.5202C241.514 55.5202 239.781 56.1369 238.448 57.3702C237.148 58.5702 236.498 60.4535 236.498 63.0202V75.7202H228.698ZM261.963 76.1202C258.797 76.1202 256.33 75.3202 254.563 73.7202C252.797 72.0869 251.913 69.6702 251.913 66.4702V42.8702H259.713V66.3702C259.713 67.5035 260.013 68.3869 260.613 69.0202C261.213 69.6202 262.03 69.9202 263.063 69.9202C264.297 69.9202 265.347 69.5869 266.213 68.9202L268.313 74.4202C267.513 74.9869 266.547 75.4202 265.413 75.7202C264.313 75.9869 263.163 76.1202 261.963 76.1202ZM247.763 55.4202V49.4202H266.413V55.4202H247.763Z"/>
</mask>
<path d="M11.65 56.4702H28.45V62.9702H11.65V56.4702ZM12.25 75.7202H4.15V40.7202H30.6V47.2202H12.25V75.7202ZM47.6988 76.1202C44.8322 76.1202 42.2822 75.5202 40.0488 74.3202C37.8488 73.1202 36.0988 71.4869 34.7988 69.4202C33.5322 67.3202 32.8988 64.9369 32.8988 62.2702C32.8988 59.5702 33.5322 57.1869 34.7988 55.1202C36.0988 53.0202 37.8488 51.3869 40.0488 50.2202C42.2822 49.0202 44.8322 48.4202 47.6988 48.4202C50.5322 48.4202 53.0655 49.0202 55.2988 50.2202C57.5322 51.3869 59.2822 53.0035 60.5488 55.0702C61.8155 57.1369 62.4488 59.5369 62.4488 62.2702C62.4488 64.9369 61.8155 67.3202 60.5488 69.4202C59.2822 71.4869 57.5322 73.1202 55.2988 74.3202C53.0655 75.5202 50.5322 76.1202 47.6988 76.1202ZM47.6988 69.7202C48.9988 69.7202 50.1655 69.4202 51.1988 68.8202C52.2322 68.2202 53.0488 67.3702 53.6488 66.2702C54.2488 65.1369 54.5488 63.8035 54.5488 62.2702C54.5488 60.7035 54.2488 59.3702 53.6488 58.2702C53.0488 57.1702 52.2322 56.3202 51.1988 55.7202C50.1655 55.1202 48.9988 54.8202 47.6988 54.8202C46.3988 54.8202 45.2322 55.1202 44.1988 55.7202C43.1655 56.3202 42.3322 57.1702 41.6988 58.2702C41.0988 59.3702 40.7988 60.7035 40.7988 62.2702C40.7988 63.8035 41.0988 65.1369 41.6988 66.2702C42.3322 67.3702 43.1655 68.2202 44.1988 68.8202C45.2322 69.4202 46.3988 69.7202 47.6988 69.7202ZM80.4625 76.1202C77.5958 76.1202 75.0458 75.5202 72.8125 74.3202C70.6125 73.1202 68.8625 71.4869 67.5625 69.4202C66.2958 67.3202 65.6625 64.9369 65.6625 62.2702C65.6625 59.5702 66.2958 57.1869 67.5625 55.1202C68.8625 53.0202 70.6125 51.3869 72.8125 50.2202C75.0458 49.0202 77.5958 48.4202 80.4625 48.4202C83.2958 48.4202 85.8292 49.0202 88.0625 50.2202C90.2958 51.3869 92.0458 53.0035 93.3125 55.0702C94.5792 57.1369 95.2125 59.5369 95.2125 62.2702C95.2125 64.9369 94.5792 67.3202 93.3125 69.4202C92.0458 71.4869 90.2958 73.1202 88.0625 74.3202C85.8292 75.5202 83.2958 76.1202 80.4625 76.1202ZM80.4625 69.7202C81.7625 69.7202 82.9292 69.4202 83.9625 68.8202C84.9958 68.2202 85.8125 67.3702 86.4125 66.2702C87.0125 65.1369 87.3125 63.8035 87.3125 62.2702C87.3125 60.7035 87.0125 59.3702 86.4125 58.2702C85.8125 57.1702 84.9958 56.3202 83.9625 55.7202C82.9292 55.1202 81.7625 54.8202 80.4625 54.8202C79.1625 54.8202 77.9958 55.1202 76.9625 55.7202C75.9292 56.3202 75.0958 57.1702 74.4625 58.2702C73.8625 59.3702 73.5625 60.7035 73.5625 62.2702C73.5625 63.8035 73.8625 65.1369 74.4625 66.2702C75.0958 67.3702 75.9292 68.2202 76.9625 68.8202C77.9958 69.4202 79.1625 69.7202 80.4625 69.7202ZM111.976 76.1202C109.443 76.1202 107.16 75.5535 105.126 74.4202C103.093 73.2535 101.476 71.6369 100.276 69.5702C99.1095 67.5035 98.5262 65.0702 98.5262 62.2702C98.5262 59.4369 99.1095 56.9869 100.276 54.9202C101.476 52.8535 103.093 51.2535 105.126 50.1202C107.16 48.9869 109.443 48.4202 111.976 48.4202C114.243 48.4202 116.226 48.9202 117.926 49.9202C119.626 50.9202 120.943 52.4369 121.876 54.4702C122.81 56.5035 123.276 59.1035 123.276 62.2702C123.276 65.4035 122.826 68.0035 121.926 70.0702C121.026 72.1035 119.726 73.6202 118.026 74.6202C116.36 75.6202 114.343 76.1202 111.976 76.1202ZM113.326 69.7202C114.593 69.7202 115.743 69.4202 116.776 68.8202C117.81 68.2202 118.626 67.3702 119.226 66.2702C119.86 65.1369 120.176 63.8035 120.176 62.2702C120.176 60.7035 119.86 59.3702 119.226 58.2702C118.626 57.1702 117.81 56.3202 116.776 55.7202C115.743 55.1202 114.593 54.8202 113.326 54.8202C112.026 54.8202 110.86 55.1202 109.826 55.7202C108.793 56.3202 107.96 57.1702 107.326 58.2702C106.726 59.3702 106.426 60.7035 106.426 62.2702C106.426 63.8035 106.726 65.1369 107.326 66.2702C107.96 67.3702 108.793 68.2202 109.826 68.8202C110.86 69.4202 112.026 69.7202 113.326 69.7202ZM120.376 75.7202V70.2202L120.526 62.2202L120.026 54.2702V38.6202H127.826V75.7202H120.376ZM142.845 67.7202L142.395 58.3702L159.145 40.7202H168.145L153.045 56.9702L148.545 61.7702L142.845 67.7202ZM135.595 75.7202V40.7202H143.645V75.7202H135.595ZM159.545 75.7202L147.095 60.4702L152.395 54.7202L168.995 75.7202H159.545ZM228.698 75.7202V48.8202H236.148V56.4202L235.098 54.2202C235.898 52.3202 237.181 50.8869 238.948 49.9202C240.714 48.9202 242.864 48.4202 245.398 48.4202V55.6202C245.064 55.5869 244.764 55.5702 244.498 55.5702C244.231 55.5369 243.948 55.5202 243.648 55.5202C241.514 55.5202 239.781 56.1369 238.448 57.3702C237.148 58.5702 236.498 60.4535 236.498 63.0202V75.7202H228.698ZM261.963 76.1202C258.797 76.1202 256.33 75.3202 254.563 73.7202C252.797 72.0869 251.913 69.6702 251.913 66.4702V42.8702H259.713V66.3702C259.713 67.5035 260.013 68.3869 260.613 69.0202C261.213 69.6202 262.03 69.9202 263.063 69.9202C264.297 69.9202 265.347 69.5869 266.213 68.9202L268.313 74.4202C267.513 74.9869 266.547 75.4202 265.413 75.7202C264.313 75.9869 263.163 76.1202 261.963 76.1202ZM247.763 55.4202V49.4202H266.413V55.4202H247.763Z" fill="black"/>
<path d="M11.65 56.4702V55.4702H10.65V56.4702H11.65ZM28.45 56.4702H29.45V55.4702H28.45V56.4702ZM28.45 62.9702V63.9702H29.45V62.9702H28.45ZM11.65 62.9702H10.65V63.9702H11.65V62.9702ZM12.25 75.7202V76.7202H13.25V75.7202H12.25ZM4.15 75.7202H3.15V76.7202H4.15V75.7202ZM4.15 40.7202V39.7202H3.15V40.7202H4.15ZM30.6 40.7202H31.6V39.7202H30.6V40.7202ZM30.6 47.2202V48.2202H31.6V47.2202H30.6ZM12.25 47.2202V46.2202H11.25V47.2202H12.25ZM11.65 57.4702H28.45V55.4702H11.65V57.4702ZM27.45 56.4702V62.9702H29.45V56.4702H27.45ZM28.45 61.9702H11.65V63.9702H28.45V61.9702ZM12.65 62.9702V56.4702H10.65V62.9702H12.65ZM12.25 74.7202H4.15V76.7202H12.25V74.7202ZM5.15 75.7202V40.7202H3.15V75.7202H5.15ZM4.15 41.7202H30.6V39.7202H4.15V41.7202ZM29.6 40.7202V47.2202H31.6V40.7202H29.6ZM30.6 46.2202H12.25V48.2202H30.6V46.2202ZM11.25 47.2202V75.7202H13.25V47.2202H11.25ZM40.0488 74.3202L39.57 75.1981L39.5755 75.2011L40.0488 74.3202ZM34.7988 69.4202L33.9425 69.9367L33.9474 69.9447L33.9524 69.9527L34.7988 69.4202ZM34.7988 55.1202L33.9486 54.5939L33.9462 54.5977L34.7988 55.1202ZM40.0488 50.2202L40.5173 51.1037L40.5221 51.1011L40.0488 50.2202ZM55.2988 50.2202L54.8255 51.1012L54.8358 51.1066L55.2988 50.2202ZM60.5488 69.4202L61.4015 69.9428L61.4051 69.9367L60.5488 69.4202ZM55.2988 74.3202L54.8255 73.4393L54.8255 73.4393L55.2988 74.3202ZM51.1988 68.8202L51.701 69.685L51.701 69.685L51.1988 68.8202ZM53.6488 66.2702L54.5268 66.7491L54.5326 66.7381L53.6488 66.2702ZM53.6488 58.2702L52.7709 58.7491L52.7709 58.7491L53.6488 58.2702ZM51.1988 55.7202L50.6967 56.585L50.6967 56.585L51.1988 55.7202ZM44.1988 55.7202L44.701 56.585L44.701 56.585L44.1988 55.7202ZM41.6988 58.2702L40.8322 57.7713L40.8265 57.7812L40.8209 57.7914L41.6988 58.2702ZM41.6988 66.2702L40.815 66.7381L40.8233 66.7538L40.8322 66.7692L41.6988 66.2702ZM44.1988 68.8202L44.701 67.9554L44.701 67.9554L44.1988 68.8202ZM47.6988 75.1202C44.9755 75.1202 42.5918 74.5514 40.5221 73.4393L39.5755 75.2011C41.9725 76.489 44.6888 77.1202 47.6988 77.1202V75.1202ZM40.5277 73.4423C38.4736 72.3219 36.8518 70.8058 35.6453 68.8878L33.9524 69.9527C35.3458 72.1679 37.2241 73.9185 39.57 75.1981L40.5277 73.4423ZM35.6551 68.9037C34.4906 66.9731 33.8988 64.7713 33.8988 62.2702H31.8988C31.8988 65.1025 32.5737 67.6673 33.9425 69.9367L35.6551 68.9037ZM33.8988 62.2702C33.8988 59.733 34.4919 57.5347 35.6514 55.6428L33.9462 54.5977C32.5725 56.839 31.8988 59.4074 31.8988 62.2702H33.8988ZM35.6491 55.6466C36.8549 53.6987 38.4726 52.188 40.5173 51.1037L39.5803 49.3368C37.225 50.5858 35.3427 52.3418 33.9486 54.5939L35.6491 55.6466ZM40.5221 51.1011C42.5918 49.989 44.9755 49.4202 47.6988 49.4202V47.4202C44.6888 47.4202 41.9725 48.0514 39.5755 49.3393L40.5221 51.1011ZM47.6988 49.4202C50.3867 49.4202 52.7541 49.9881 54.8255 51.1011L55.7721 49.3393C53.3769 48.0523 50.6776 47.4202 47.6988 47.4202V49.4202ZM54.8358 51.1066C56.9154 52.1929 58.528 53.6866 59.6962 55.5928L61.4014 54.5477C60.0364 52.3205 58.1489 50.5808 55.7618 49.3339L54.8358 51.1066ZM59.6962 55.5928C60.8546 57.4828 61.4488 59.6972 61.4488 62.2702H63.4488C63.4488 59.3766 62.7764 56.791 61.4014 54.5477L59.6962 55.5928ZM61.4488 62.2702C61.4488 64.7713 60.857 66.9731 59.6925 68.9037L61.4051 69.9367C62.774 67.6673 63.4488 65.1025 63.4488 62.2702H61.4488ZM59.6962 68.8977C58.5264 70.8063 56.9104 72.3191 54.8255 73.4393L55.7721 75.2011C58.1539 73.9213 60.0379 72.1674 61.4014 69.9428L59.6962 68.8977ZM54.8255 73.4393C52.7541 74.5523 50.3867 75.1202 47.6988 75.1202V77.1202C50.6776 77.1202 53.3769 76.4881 55.7721 75.2011L54.8255 73.4393ZM47.6988 70.7202C49.1592 70.7202 50.5018 70.3813 51.701 69.685L50.6967 67.9554C49.8291 68.4592 48.8384 68.7202 47.6988 68.7202V70.7202ZM51.701 69.685C52.9003 68.9886 53.8436 68.0015 54.5267 66.7491L52.7709 65.7914C52.2541 66.7389 51.564 67.4518 50.6967 67.9554L51.701 69.685ZM54.5326 66.7381C55.2225 65.4349 55.5488 63.9349 55.5488 62.2702H53.5488C53.5488 63.6722 53.2751 64.8388 52.765 65.8023L54.5326 66.7381ZM55.5488 62.2702C55.5488 60.5774 55.2245 59.0706 54.5267 57.7914L52.7709 58.7491C53.2732 59.6698 53.5488 60.8297 53.5488 62.2702H55.5488ZM54.5267 57.7914C53.8436 56.5389 52.9003 55.5518 51.701 54.8554L50.6967 56.585C51.564 57.0886 52.2541 57.8015 52.7709 58.7491L54.5267 57.7914ZM51.701 54.8554C50.5018 54.1592 49.1592 53.8202 47.6988 53.8202V55.8202C48.8384 55.8202 49.8291 56.0813 50.6967 56.585L51.701 54.8554ZM47.6988 53.8202C46.2384 53.8202 44.8958 54.1592 43.6967 54.8554L44.701 56.585C45.5685 56.0813 46.5592 55.8202 47.6988 55.8202V53.8202ZM43.6967 54.8554C42.5024 55.5489 41.5473 56.5293 40.8322 57.7713L42.5655 58.7692C43.1171 57.8111 43.8285 57.0916 44.701 56.585L43.6967 54.8554ZM40.8209 57.7914C40.1232 59.0706 39.7988 60.5774 39.7988 62.2702H41.7988C41.7988 60.8297 42.0745 59.6698 42.5767 58.7491L40.8209 57.7914ZM39.7988 62.2702C39.7988 63.9349 40.1251 65.4349 40.815 66.7381L42.5826 65.8023C42.0725 64.8388 41.7988 63.6722 41.7988 62.2702H39.7988ZM40.8322 66.7692C41.5473 68.0111 42.5024 68.9916 43.6967 69.685L44.701 67.9554C43.8285 67.4489 43.1171 66.7293 42.5655 65.7712L40.8322 66.7692ZM43.6967 69.685C44.8958 70.3813 46.2384 70.7202 47.6988 70.7202V68.7202C46.5592 68.7202 45.5685 68.4592 44.701 67.9554L43.6967 69.685ZM72.8125 74.3202L72.3336 75.1981L72.3392 75.2011L72.8125 74.3202ZM67.5625 69.4202L66.7062 69.9367L66.711 69.9447L66.716 69.9527L67.5625 69.4202ZM67.5625 55.1202L66.7122 54.5939L66.7099 54.5977L67.5625 55.1202ZM72.8125 50.2202L73.281 51.1037L73.2858 51.1011L72.8125 50.2202ZM88.0625 50.2202L87.5892 51.1012L87.5995 51.1066L88.0625 50.2202ZM93.3125 69.4202L94.1651 69.9428L94.1688 69.9367L93.3125 69.4202ZM88.0625 74.3202L87.5892 73.4393L87.5892 73.4393L88.0625 74.3202ZM83.9625 68.8202L84.4646 69.685L84.4646 69.685L83.9625 68.8202ZM86.4125 66.2702L87.2905 66.7491L87.2963 66.7381L86.4125 66.2702ZM86.4125 58.2702L85.5346 58.7491L85.5346 58.7491L86.4125 58.2702ZM83.9625 55.7202L83.4604 56.585L83.4604 56.585L83.9625 55.7202ZM76.9625 55.7202L77.4646 56.585L77.4646 56.585L76.9625 55.7202ZM74.4625 58.2702L73.5959 57.7713L73.5901 57.7812L73.5846 57.7914L74.4625 58.2702ZM74.4625 66.2702L73.5787 66.7381L73.587 66.7538L73.5959 66.7692L74.4625 66.2702ZM76.9625 68.8202L77.4646 67.9554L77.4646 67.9554L76.9625 68.8202ZM80.4625 75.1202C77.7392 75.1202 75.3555 74.5514 73.2858 73.4393L72.3392 75.2011C74.7362 76.489 77.4525 77.1202 80.4625 77.1202V75.1202ZM73.2914 73.4423C71.2373 72.3219 69.6155 70.8058 68.409 68.8878L66.716 69.9527C68.1095 72.1679 69.9877 73.9185 72.3336 75.1981L73.2914 73.4423ZM68.4188 68.9037C67.2543 66.9731 66.6625 64.7713 66.6625 62.2702H64.6625C64.6625 65.1025 65.3374 67.6673 66.7062 69.9367L68.4188 68.9037ZM66.6625 62.2702C66.6625 59.733 67.2555 57.5347 68.4151 55.6428L66.7099 54.5977C65.3361 56.839 64.6625 59.4074 64.6625 62.2702H66.6625ZM68.4128 55.6466C69.6186 53.6987 71.2363 52.188 73.281 51.1037L72.344 49.3368C69.9887 50.5858 68.1064 52.3418 66.7122 54.5939L68.4128 55.6466ZM73.2858 51.1011C75.3555 49.989 77.7392 49.4202 80.4625 49.4202V47.4202C77.4525 47.4202 74.7362 48.0514 72.3392 49.3393L73.2858 51.1011ZM80.4625 49.4202C83.1504 49.4202 85.5178 49.9881 87.5892 51.1011L88.5358 49.3393C86.1405 48.0523 83.4413 47.4202 80.4625 47.4202V49.4202ZM87.5995 51.1066C89.6791 52.1929 91.2916 53.6866 92.4599 55.5928L94.1651 54.5477C92.8 52.3205 90.9126 50.5808 88.5255 49.3339L87.5995 51.1066ZM92.4599 55.5928C93.6183 57.4828 94.2125 59.6972 94.2125 62.2702H96.2125C96.2125 59.3766 95.54 56.791 94.1651 54.5477L92.4599 55.5928ZM94.2125 62.2702C94.2125 64.7713 93.6207 66.9731 92.4562 68.9037L94.1688 69.9367C95.5376 67.6673 96.2125 65.1025 96.2125 62.2702H94.2125ZM92.4599 68.8977C91.2901 70.8063 89.6741 72.3191 87.5892 73.4393L88.5358 75.2011C90.9176 73.9213 92.8016 72.1674 94.1651 69.9428L92.4599 68.8977ZM87.5892 73.4393C85.5178 74.5523 83.1504 75.1202 80.4625 75.1202V77.1202C83.4413 77.1202 86.1405 76.4881 88.5358 75.2011L87.5892 73.4393ZM80.4625 70.7202C81.9229 70.7202 83.2655 70.3813 84.4646 69.685L83.4604 67.9554C82.5928 68.4592 81.6021 68.7202 80.4625 68.7202V70.7202ZM84.4646 69.685C85.664 68.9886 86.6073 68.0015 87.2904 66.7491L85.5346 65.7914C85.0177 66.7389 84.3277 67.4518 83.4604 67.9554L84.4646 69.685ZM87.2963 66.7381C87.9862 65.4349 88.3125 63.9349 88.3125 62.2702H86.3125C86.3125 63.6722 86.0388 64.8388 85.5287 65.8023L87.2963 66.7381ZM88.3125 62.2702C88.3125 60.5774 87.9882 59.0706 87.2904 57.7914L85.5346 58.7491C86.0368 59.6698 86.3125 60.8297 86.3125 62.2702H88.3125ZM87.2904 57.7914C86.6073 56.5389 85.664 55.5518 84.4646 54.8554L83.4604 56.585C84.3277 57.0886 85.0177 57.8015 85.5346 58.7491L87.2904 57.7914ZM84.4646 54.8554C83.2655 54.1592 81.9229 53.8202 80.4625 53.8202V55.8202C81.6021 55.8202 82.5928 56.0813 83.4604 56.585L84.4646 54.8554ZM80.4625 53.8202C79.0021 53.8202 77.6595 54.1592 76.4604 54.8554L77.4646 56.585C78.3322 56.0813 79.3229 55.8202 80.4625 55.8202V53.8202ZM76.4604 54.8554C75.2661 55.5489 74.3109 56.5293 73.5959 57.7713L75.3291 58.7692C75.8807 57.8111 76.5922 57.0916 77.4646 56.585L76.4604 54.8554ZM73.5846 57.7914C72.8868 59.0706 72.5625 60.5774 72.5625 62.2702H74.5625C74.5625 60.8297 74.8382 59.6698 75.3404 58.7491L73.5846 57.7914ZM72.5625 62.2702C72.5625 63.9349 72.8888 65.4349 73.5787 66.7381L75.3463 65.8023C74.8362 64.8388 74.5625 63.6722 74.5625 62.2702H72.5625ZM73.5959 66.7692C74.3109 68.0111 75.2661 68.9916 76.4604 69.685L77.4646 67.9554C76.5922 67.4489 75.8807 66.7293 75.3291 65.7712L73.5959 66.7692ZM76.4604 69.685C77.6595 70.3813 79.0021 70.7202 80.4625 70.7202V68.7202C79.3229 68.7202 78.3322 68.4592 77.4646 67.9554L76.4604 69.685ZM105.126 74.4202L104.628 75.2876L104.639 75.2937L105.126 74.4202ZM100.276 69.5702L99.4053 70.0618L99.4114 70.0724L100.276 69.5702ZM100.276 54.9202L99.4113 54.418L99.4053 54.4286L100.276 54.9202ZM105.126 50.1202L104.639 49.2467L104.639 49.2467L105.126 50.1202ZM117.926 49.9202L118.433 49.0583L118.433 49.0583L117.926 49.9202ZM121.876 54.4702L122.785 54.053L122.785 54.053L121.876 54.4702ZM121.926 70.0702L122.841 70.475L122.843 70.4695L121.926 70.0702ZM118.026 74.6202L117.519 73.7582L117.512 73.7627L118.026 74.6202ZM116.776 68.8202L116.274 67.9554L116.274 67.9554L116.776 68.8202ZM119.226 66.2702L118.353 65.7824L118.348 65.7914L119.226 66.2702ZM119.226 58.2702L118.348 58.7491L118.354 58.7592L118.36 58.7692L119.226 58.2702ZM116.776 55.7202L116.274 56.585L116.274 56.585L116.776 55.7202ZM109.826 55.7202L110.328 56.585L110.328 56.585L109.826 55.7202ZM107.326 58.2702L106.46 57.7713L106.454 57.7812L106.448 57.7914L107.326 58.2702ZM107.326 66.2702L106.442 66.7381L106.451 66.7538L106.46 66.7692L107.326 66.2702ZM109.826 68.8202L110.328 67.9554L110.328 67.9554L109.826 68.8202ZM120.376 75.7202H119.376V76.7202H120.376V75.7202ZM120.376 70.2202L119.376 70.2015L119.376 70.2108V70.2202H120.376ZM120.526 62.2202L121.526 62.239L121.527 62.1982L121.524 62.1574L120.526 62.2202ZM120.026 54.2702H119.026V54.3016L119.028 54.333L120.026 54.2702ZM120.026 38.6202V37.6202H119.026V38.6202H120.026ZM127.826 38.6202H128.826V37.6202H127.826V38.6202ZM127.826 75.7202V76.7202H128.826V75.7202H127.826ZM111.976 75.1202C109.598 75.1202 107.485 74.5899 105.613 73.5467L104.639 75.2937C106.834 76.5172 109.288 77.1202 111.976 77.1202V75.1202ZM105.624 73.5528C103.746 72.4753 102.255 70.986 101.141 69.0681L99.4114 70.0724C100.698 72.2878 102.44 74.0318 104.629 75.2876L105.624 73.5528ZM101.147 69.0786C100.079 67.1869 99.5262 64.9291 99.5262 62.2702H97.5262C97.5262 65.2114 98.1399 67.8202 99.4053 70.0618L101.147 69.0786ZM99.5262 62.2702C99.5262 59.5757 100.08 57.3018 101.147 55.4118L99.4053 54.4286C98.139 56.6719 97.5262 59.298 97.5262 62.2702H99.5262ZM101.141 55.4223C102.253 53.5069 103.741 52.0371 105.613 50.9937L104.639 49.2467C102.445 50.47 100.699 52.2002 99.4114 54.4181L101.141 55.4223ZM105.613 50.9937C107.485 49.9505 109.598 49.4202 111.976 49.4202V47.4202C109.288 47.4202 106.834 48.0232 104.639 49.2467L105.613 50.9937ZM111.976 49.4202C114.092 49.4202 115.895 49.8853 117.419 50.7821L118.433 49.0583C116.558 47.9551 114.394 47.4202 111.976 47.4202V49.4202ZM117.419 50.7821C118.92 51.6649 120.107 53.014 120.967 54.8874L122.785 54.053C121.778 51.8598 120.333 50.1755 118.433 49.0583L117.419 50.7821ZM120.967 54.8874C121.821 56.7473 122.276 59.1919 122.276 62.2702H124.276C124.276 59.0152 123.798 56.2598 122.785 54.053L120.967 54.8874ZM122.276 62.2702C122.276 65.3162 121.838 67.7692 121.009 69.6709L122.843 70.4695C123.815 68.2379 124.276 65.4909 124.276 62.2702H122.276ZM121.012 69.6655C120.185 71.533 119.016 72.8776 117.519 73.7583L118.533 75.4821C120.436 74.3628 121.867 72.6741 122.841 70.475L121.012 69.6655ZM117.512 73.7627C116.031 74.6511 114.201 75.1202 111.976 75.1202V77.1202C114.485 77.1202 116.688 76.5894 118.541 75.4777L117.512 73.7627ZM113.326 70.7202C114.758 70.7202 116.083 70.3789 117.278 69.685L116.274 67.9554C115.402 68.4615 114.427 68.7202 113.326 68.7202V70.7202ZM117.278 69.685C118.478 68.9886 119.421 68.0015 120.104 66.7491L118.348 65.7914C117.831 66.7389 117.141 67.4518 116.274 67.9554L117.278 69.685ZM120.099 66.758C120.83 65.4507 121.176 63.9433 121.176 62.2702H119.176C119.176 63.6638 118.889 64.8231 118.353 65.7824L120.099 66.758ZM121.176 62.2702C121.176 60.5691 120.832 59.0548 120.093 57.7713L118.36 58.7692C118.887 59.6857 119.176 60.838 119.176 62.2702H121.176ZM120.104 57.7914C119.421 56.5389 118.478 55.5518 117.278 54.8554L116.274 56.585C117.141 57.0886 117.831 57.8015 118.348 58.7491L120.104 57.7914ZM117.278 54.8554C116.083 54.1615 114.758 53.8202 113.326 53.8202V55.8202C114.427 55.8202 115.402 56.0789 116.274 56.585L117.278 54.8554ZM113.326 53.8202C111.866 53.8202 110.523 54.1592 109.324 54.8554L110.328 56.585C111.196 56.0813 112.187 55.8202 113.326 55.8202V53.8202ZM109.324 54.8554C108.13 55.5489 107.175 56.5293 106.46 57.7713L108.193 58.7692C108.744 57.8111 109.456 57.0916 110.328 56.585L109.324 54.8554ZM106.448 57.7914C105.751 59.0706 105.426 60.5774 105.426 62.2702H107.426C107.426 60.8297 107.702 59.6698 108.204 58.7491L106.448 57.7914ZM105.426 62.2702C105.426 63.9349 105.752 65.4349 106.442 66.7381L108.21 65.8023C107.7 64.8388 107.426 63.6722 107.426 62.2702H105.426ZM106.46 66.7692C107.175 68.0111 108.13 68.9916 109.324 69.685L110.328 67.9554C109.456 67.4489 108.744 66.7293 108.193 65.7712L106.46 66.7692ZM109.324 69.685C110.523 70.3813 111.866 70.7202 113.326 70.7202V68.7202C112.187 68.7202 111.196 68.4592 110.328 67.9554L109.324 69.685ZM121.376 75.7202V70.2202H119.376V75.7202H121.376ZM121.376 70.239L121.526 62.239L119.526 62.2015L119.376 70.2015L121.376 70.239ZM121.524 62.1574L121.024 54.2074L119.028 54.333L119.528 62.283L121.524 62.1574ZM121.026 54.2702V38.6202H119.026V54.2702H121.026ZM120.026 39.6202H127.826V37.6202H120.026V39.6202ZM126.826 38.6202V75.7202H128.826V38.6202H126.826ZM127.826 74.7202H120.376V76.7202H127.826V74.7202ZM142.845 67.7202L141.846 67.7683L141.958 70.0917L143.567 68.412L142.845 67.7202ZM142.395 58.3702L141.67 57.6818L141.376 57.9917L141.396 58.4183L142.395 58.3702ZM159.145 40.7202V39.7202H158.716L158.42 40.0318L159.145 40.7202ZM168.145 40.7202L168.878 41.4009L170.44 39.7202H168.145V40.7202ZM153.045 56.9702L153.775 57.6542L153.778 57.6509L153.045 56.9702ZM148.545 61.7702L149.267 62.462L149.275 62.4542L148.545 61.7702ZM135.595 75.7202H134.595V76.7202H135.595V75.7202ZM135.595 40.7202V39.7202H134.595V40.7202H135.595ZM143.645 40.7202H144.645V39.7202H143.645V40.7202ZM143.645 75.7202V76.7202H144.645V75.7202H143.645ZM159.545 75.7202L158.771 76.3526L159.071 76.7202H159.545V75.7202ZM147.095 60.4702L146.36 59.7925L145.772 60.4305L146.321 61.1026L147.095 60.4702ZM152.395 54.7202L153.18 54.1001L152.454 53.1814L151.66 54.0425L152.395 54.7202ZM168.995 75.7202V76.7202H171.06L169.78 75.1001L168.995 75.7202ZM143.844 67.6721L143.394 58.3221L141.396 58.4183L141.846 67.7683L143.844 67.6721ZM143.121 59.0586L159.871 41.4086L158.42 40.0318L141.67 57.6818L143.121 59.0586ZM159.145 41.7202H168.145V39.7202H159.145V41.7202ZM167.413 40.0395L152.313 56.2895L153.778 57.6509L168.878 41.4009L167.413 40.0395ZM152.316 56.2863L147.816 61.0863L149.275 62.4542L153.775 57.6542L152.316 56.2863ZM147.823 61.0784L142.123 67.0284L143.567 68.412L149.267 62.462L147.823 61.0784ZM136.595 75.7202V40.7202H134.595V75.7202H136.595ZM135.595 41.7202H143.645V39.7202H135.595V41.7202ZM142.645 40.7202V75.7202H144.645V40.7202H142.645ZM143.645 74.7202H135.595V76.7202H143.645V74.7202ZM160.32 75.0878L147.87 59.8378L146.321 61.1026L158.771 76.3526L160.32 75.0878ZM147.831 61.148L153.131 55.398L151.66 54.0425L146.36 59.7925L147.831 61.148ZM151.611 55.3403L168.211 76.3403L169.78 75.1001L153.18 54.1001L151.611 55.3403ZM168.995 74.7202H159.545V76.7202H168.995V74.7202ZM228.698 75.7202H227.698V76.7202H228.698V75.7202ZM228.698 48.8202V47.8202H227.698V48.8202H228.698ZM236.148 48.8202H237.148V47.8202H236.148V48.8202ZM236.148 56.4202L235.245 56.8509L237.148 56.4202H236.148ZM235.098 54.2202L234.176 53.8322L234.002 54.2458L234.195 54.6509L235.098 54.2202ZM238.948 49.9202L239.428 50.7975L239.434 50.794L239.44 50.7905L238.948 49.9202ZM245.398 48.4202H246.398V47.4202H245.398V48.4202ZM245.398 55.6202L245.298 56.6153L246.398 56.7252V55.6202H245.398ZM244.498 55.5702L244.374 56.5625L244.435 56.5702H244.498V55.5702ZM238.448 57.3702L239.126 58.105L239.127 58.1043L238.448 57.3702ZM236.498 75.7202V76.7202H237.498V75.7202H236.498ZM229.698 75.7202V48.8202H227.698V75.7202H229.698ZM228.698 49.8202H236.148V47.8202H228.698V49.8202ZM235.148 48.8202V56.4202H237.148V48.8202H235.148ZM237.05 55.9895L236 53.7895L234.195 54.6509L235.245 56.8509L237.05 55.9895ZM236.019 54.6083C236.734 52.9112 237.864 51.6529 239.428 50.7975L238.468 49.043C236.498 50.1209 235.061 51.7292 234.176 53.8322L236.019 54.6083ZM239.44 50.7905C241.024 49.8942 242.995 49.4202 245.398 49.4202V47.4202C242.734 47.4202 240.405 47.9463 238.455 49.05L239.44 50.7905ZM244.398 48.4202V55.6202H246.398V48.4202H244.398ZM245.497 54.6252C245.139 54.5893 244.805 54.5702 244.498 54.5702V56.5702C244.724 56.5702 244.99 56.5844 245.298 56.6153L245.497 54.6252ZM244.622 54.5779C244.309 54.5389 243.984 54.5202 243.648 54.5202V56.5202C243.911 56.5202 244.153 56.5349 244.374 56.5625L244.622 54.5779ZM243.648 54.5202C241.309 54.5202 239.318 55.2025 237.769 56.6361L239.127 58.1043C240.244 57.0713 241.719 56.5202 243.648 56.5202V54.5202ZM237.769 56.6354C236.186 58.0967 235.498 60.302 235.498 63.0202H237.498C237.498 60.6051 238.109 59.0437 239.126 58.105L237.769 56.6354ZM235.498 63.0202V75.7202H237.498V63.0202H235.498ZM236.498 74.7202H228.698V76.7202H236.498V74.7202ZM254.563 73.7202L253.884 74.4545L253.892 74.4614L254.563 73.7202ZM251.913 42.8702V41.8702H250.913V42.8702H251.913ZM259.713 42.8702H260.713V41.8702H259.713V42.8702ZM260.613 69.0202L259.887 69.708L259.897 69.7178L259.906 69.7273L260.613 69.0202ZM266.213 68.9202L267.147 68.5635L266.668 67.3085L265.604 68.1276L266.213 68.9202ZM268.313 74.4202L268.891 75.2362L269.524 74.788L269.248 74.0635L268.313 74.4202ZM265.413 75.7202L265.649 76.6921L265.659 76.6896L265.669 76.6869L265.413 75.7202ZM247.763 55.4202H246.763V56.4202H247.763V55.4202ZM247.763 49.4202V48.4202H246.763V49.4202H247.763ZM266.413 49.4202H267.413V48.4202H266.413V49.4202ZM266.413 55.4202V56.4202H267.413V55.4202H266.413ZM261.963 75.1202C258.962 75.1202 256.764 74.364 255.235 72.979L253.892 74.4614C255.896 76.2764 258.632 77.1202 261.963 77.1202V75.1202ZM255.242 72.9859C253.742 71.5986 252.913 69.4877 252.913 66.4702H250.913C250.913 69.8527 251.852 72.5751 253.884 74.4545L255.242 72.9859ZM252.913 66.4702V42.8702H250.913V66.4702H252.913ZM251.913 43.8702H259.713V41.8702H251.913V43.8702ZM258.713 42.8702V66.3702H260.713V42.8702H258.713ZM258.713 66.3702C258.713 67.6803 259.064 68.8384 259.887 69.708L261.339 68.3325C260.963 67.9353 260.713 67.3268 260.713 66.3702H258.713ZM259.906 69.7273C260.733 70.5543 261.826 70.9202 263.063 70.9202V68.9202C262.234 68.9202 261.693 68.6861 261.32 68.3131L259.906 69.7273ZM263.063 70.9202C264.487 70.9202 265.759 70.531 266.823 69.7128L265.604 68.1276C264.934 68.6428 264.106 68.9202 263.063 68.9202V70.9202ZM265.279 69.2769L267.379 74.7769L269.248 74.0635L267.147 68.5635L265.279 69.2769ZM267.735 73.6042C267.05 74.0897 266.197 74.4783 265.157 74.7535L265.669 76.6869C266.896 76.3622 267.977 75.884 268.891 75.2362L267.735 73.6042ZM265.178 74.7484C264.159 74.9952 263.089 75.1202 261.963 75.1202V77.1202C263.238 77.1202 264.467 76.9785 265.649 76.6921L265.178 74.7484ZM248.763 55.4202V49.4202H246.763V55.4202H248.763ZM247.763 50.4202H266.413V48.4202H247.763V50.4202ZM265.413 49.4202V55.4202H267.413V49.4202H265.413ZM266.413 54.4202H247.763V56.4202H266.413V54.4202Z" fill="black" mask="url(#path-5-outside-1_107_26)"/>
</g>
<defs>
<filter id="filter0_d_107_26" x="0.150391" y="38.6201" width="272.163" height="45.5" filterUnits="userSpaceOnUse" color-interpolation-filters="sRGB">
<feFlood flood-opacity="0" result="BackgroundImageFix"/>
<feColorMatrix in="SourceAlpha" type="matrix" values="0 0 0 0 0 0 0 0 0 0 0 0 0 0 0 0 0 0 127 0" result="hardAlpha"/>
<feOffset dy="4"/>
<feGaussianBlur stdDeviation="2"/>
<feComposite in2="hardAlpha" operator="out"/>
<feColorMatrix type="matrix" values="0 0 0 0 0 0 0 0 0 0 0 0 0 0 0 0 0 0 0.25 0"/>
<feBlend mode="normal" in2="BackgroundImageFix" result="effect1_dropShadow_107_26"/>
<feBlend mode="normal" in="SourceGraphic" in2="effect1_dropShadow_107_26" result="shape"/>
</filter>
</defs>
</svg>
